<svg xmlns="http://www.w3.org/2000/svg" width="153.72" height="73.067" viewBox="0 0 153.72 73.067"><g transform="translate(-1626.353 -585.305)"><path d="M39.368,0,30.576-12.6A12.744,12.744,0,0,0,38.64-24.976c0-8.792-6.552-14.224-17.024-14.224H4.648V0H13.72V-10.92h8.344L29.624,0ZM29.456-24.976c0,4.256-2.8,6.832-8.344,6.832H13.72V-31.808h7.392C26.656-31.808,29.456-29.288,29.456-24.976ZM54.824-7.28v-9.072h18.2v-7.056h-18.2V-31.92H75.432V-39.2H45.808V0H76.16V-7.28ZM110.376-39.2v23.8L90.888-39.2h-7.5V0h8.96V-23.8L111.888,0h7.448V-39.2ZM136.752,0h9.072V-31.808h12.544V-39.2h-34.16v7.392h12.544Z" transform="translate(1621.704 624.505)" fill="#11985e"/><path d="M21.736-19.836l-.988,4.94c-.95-3.23-3.686-5.092-7.828-5.092-6.5,0-11.21,5.054-11.21,11.894C1.71-3,5.13.152,10.26.152a10.218,10.218,0,0,0,8.36-4.028L17.86,0h1.824l3.952-19.836ZM10.64-1.558c-4.446,0-7.03-2.432-7.03-6.65,0-5.814,3.952-10.07,9.31-10.07,4.446,0,7.03,2.432,7.03,6.65C19.95-5.776,16-1.558,10.64-1.558Zm30.4-18.43A10.114,10.114,0,0,0,32.718-16l.76-3.838H31.616L26.182,7.372h1.9L30.552-4.94C31.54-1.672,34.238.152,38.38.152c6.5,0,11.248-5.054,11.248-11.894C49.628-16.834,46.17-19.988,41.04-19.988ZM38.418-1.558c-4.484,0-7.068-2.432-7.068-6.65,0-5.852,3.952-10.07,9.31-10.07,4.446,0,7.03,2.432,7.03,6.65C47.69-5.814,43.776-1.558,38.418-1.558ZM66.69-19.988A10.114,10.114,0,0,0,58.368-16l.76-3.838H57.266L51.832,7.372h1.9L56.2-4.94C57.19-1.672,59.888.152,64.03.152c6.5,0,11.248-5.054,11.248-11.894C75.278-16.834,71.82-19.988,66.69-19.988ZM64.068-1.558C59.584-1.558,57-3.99,57-8.208c0-5.852,3.952-10.07,9.31-10.07,4.446,0,7.03,2.432,7.03,6.65C73.34-5.814,69.426-1.558,64.068-1.558Z" transform="translate(1703.525 651)" fill="#999"/></g></svg>